<?xml version="1.0" standalone="no"?>
<!DOCTYPE svg PUBLIC "-//W3C//DTD SVG 20010904//EN"
 "http://www.w3.org/TR/2001/REC-SVG-20010904/DTD/svg10.dtd">
<svg version="1.0" xmlns="http://www.w3.org/2000/svg"
 width="512.000000pt" height="512.000000pt" viewBox="0 0 512.000000 512.000000"
 preserveAspectRatio="xMidYMid meet">
<metadata>
Created by potrace 1.14, written by Peter Selinger 2001-2017
</metadata>
<g transform="translate(0.000000,512.000000) scale(0.100000,-0.100000)"
fill="#000000" stroke="none">
<path d="M5093 4087 c-54 -78 -116 -126 -168 -131 -19 -2 -35 0 -35 6 0 5 -5
6 -10 3 -6 -4 -17 -2 -24 4 -8 7 -18 11 -22 9 -5 -1 -19 3 -31 10 -13 7 -23
10 -23 6 0 -3 -6 -2 -12 4 -20 16 -118 8 -163 -13 -54 -25 -112 -65 -157 -108
l-38 -36 -62 32 c-78 41 -170 44 -233 9 -53 -29 -75 -44 -94 -62 -76 -71 -176
-128 -205 -117 -9 3 -18 2 -22 -4 -3 -6 -10 -6 -17 -1 -7 5 -25 12 -41 16 -17
4 -42 16 -58 27 -15 11 -28 18 -28 15 0 -2 -19 13 -42 35 -23 21 -43 37 -46
35 -2 -2 6 -24 17 -49 12 -25 21 -51 21 -56 0 -6 5 -11 11 -11 5 0 7 -4 4 -10
-3 -5 -1 -10 4 -10 6 0 11 -6 11 -14 0 -7 7 -19 15 -26 8 -7 13 -16 10 -20 -3
-5 -1 -10 3 -12 4 -1 23 -25 42 -53 50 -73 172 -189 265 -251 45 -30 87 -54
94 -54 6 0 11 -5 11 -11 0 -5 4 -8 9 -4 5 3 17 -3 27 -12 10 -10 18 -17 18
-15 1 2 15 -2 31 -9 17 -7 38 -14 47 -15 10 -2 23 -5 30 -6 7 -2 15 -6 18 -10
3 -4 21 -10 40 -13 19 -4 40 -8 45 -9 6 -1 15 -4 20 -7 6 -3 22 -5 37 -4 l28
1 -6 -76 c-3 -41 -7 -106 -9 -145 -2 -38 -4 -70 -5 -70 -1 0 -4 -22 -6 -49
-11 -132 -71 -289 -154 -401 -48 -65 -152 -169 -189 -190 -64 -34 -99 -47
-145 -50 -47 -3 -142 18 -161 36 -5 5 -17 9 -27 9 -10 0 -18 4 -18 8 0 5 -16
14 -35 22 -19 8 -35 17 -35 21 0 3 -13 12 -30 19 -16 7 -30 16 -30 21 0 5 -7
9 -15 9 -8 0 -15 5 -15 11 0 5 -4 7 -10 4 -5 -3 -10 -1 -10 4 0 6 -6 11 -14
11 -8 0 -16 7 -20 15 -3 8 -10 15 -16 15 -6 0 -20 9 -32 20 -12 11 -28 20 -35
20 -7 0 -13 4 -13 8 0 5 -17 20 -37 33 -64 42 -238 162 -243 168 -7 8 -41 29
-60 38 -8 4 -22 15 -31 25 -9 10 -20 18 -24 18 -5 0 -23 11 -41 25 -18 14 -37
25 -43 25 -6 0 -11 4 -11 9 0 5 -8 12 -18 15 -10 4 -27 14 -38 24 -25 22 -72
53 -80 51 -4 0 -10 4 -13 10 -23 36 -371 230 -420 234 -11 1 -23 7 -25 14 -3
7 -12 10 -21 7 -8 -4 -21 -2 -28 4 -6 5 -25 12 -42 15 -16 3 -42 8 -56 11 -14
3 -42 7 -62 8 -20 2 -37 7 -37 12 0 5 -7 3 -15 -4 -8 -7 -15 -8 -15 -4 0 5
-58 9 -130 9 -71 0 -130 -3 -130 -6 0 -3 -19 -6 -42 -6 -24 -1 -53 -3 -64 -6
-12 -3 -39 -8 -60 -12 -22 -4 -43 -8 -49 -9 -5 -2 -28 -7 -50 -11 -55 -12 -55
-12 -57 -14 -4 -3 -40 -11 -63 -14 -11 -1 -22 -4 -25 -7 -3 -3 -27 -13 -55
-22 -97 -31 -180 -63 -186 -71 -3 -5 -8 -7 -11 -5 -8 5 -108 -45 -108 -54 0
-5 -4 -7 -9 -3 -5 3 -30 -6 -54 -19 -24 -14 -64 -36 -88 -49 -59 -31 -93 -51
-99 -57 -3 -3 -21 -14 -40 -24 -19 -11 -44 -28 -54 -38 -11 -10 -26 -18 -33
-18 -7 0 -13 -5 -13 -10 0 -6 -8 -14 -17 -17 -20 -7 -126 -87 -188 -141 -57
-49 -224 -212 -218 -212 3 0 -10 -17 -28 -38 -19 -21 -41 -49 -49 -61 -8 -13
-20 -29 -26 -35 -6 -6 -26 -42 -45 -81 -57 -116 -49 -225 33 -470 22 -66 45
-129 51 -140 6 -11 12 -22 12 -25 1 -9 79 -165 85 -170 3 -3 17 -26 30 -52 14
-27 28 -48 32 -48 5 0 8 -5 8 -10 0 -12 40 -71 55 -82 7 -5 7 -8 0 -8 -6 0 -6
-3 0 -8 6 -4 26 -27 45 -52 19 -25 39 -50 45 -57 5 -6 21 -26 35 -44 33 -43
207 -217 255 -254 21 -16 54 -45 74 -63 20 -17 44 -35 54 -38 9 -3 17 -9 17
-14 0 -5 8 -11 18 -14 10 -4 27 -15 38 -25 54 -50 443 -261 482 -261 6 0 12
-4 12 -10 0 -5 3 -9 7 -8 5 1 24 -4 43 -11 19 -8 38 -15 43 -16 4 -1 9 -4 12
-5 3 -1 8 -3 13 -5 4 -1 20 -7 36 -14 16 -6 36 -13 45 -15 9 -2 29 -8 45 -15
16 -6 38 -13 50 -16 11 -2 22 -4 24 -6 1 -1 5 -2 10 -3 4 -1 13 -5 19 -9 7 -5
13 -6 13 -3 0 3 18 -1 40 -9 22 -8 40 -12 40 -10 0 2 18 -2 41 -10 22 -8 43
-14 47 -14 4 1 9 0 12 -1 3 -1 13 -3 24 -5 10 -2 40 -9 65 -15 26 -6 52 -10
57 -9 5 1 16 0 24 -4 29 -11 192 -34 368 -52 225 -22 552 -26 688 -9 99 13
301 61 359 85 17 7 32 13 35 14 3 1 20 6 38 10 17 4 32 11 32 16 0 5 7 9 15 9
18 0 129 52 133 63 2 4 12 7 23 7 10 0 19 5 19 10 0 6 6 10 13 10 10 0 78 41
112 67 6 5 23 17 40 27 35 23 31 20 120 93 82 68 174 161 217 221 17 23 35 42
40 42 4 0 8 5 8 11 0 6 6 17 13 24 25 29 34 41 63 89 16 26 39 64 52 84 40 65
73 132 65 132 -5 0 -3 4 3 8 25 15 139 314 179 467 1 6 3 13 4 17 1 4 6 22 11
39 5 18 12 51 16 73 3 23 10 46 15 52 5 6 6 13 4 16 -3 3 -1 27 5 54 7 27 13
65 15 84 3 19 6 51 9 70 17 123 27 245 29 358 1 40 6 72 12 72 7 0 7 3 0 8
-13 9 -13 165 0 174 7 5 7 8 0 8 -10 0 -17 70 -19 187 -1 29 -4 53 -7 53 -3 0
-6 12 -6 28 -2 54 -10 119 -16 129 -4 6 -8 31 -9 57 -2 25 -6 46 -10 46 -4 0
-7 8 -6 18 0 15 -5 38 -16 77 -21 73 -26 60 47 120 14 11 23 23 21 27 -3 4 5
9 16 13 11 4 18 11 15 16 -4 5 1 12 9 15 9 3 16 12 16 20 0 8 5 14 10 14 6 0
10 5 10 11 0 6 7 17 15 26 8 8 13 19 10 24 -4 5 -2 9 3 9 9 0 25 37 23 53 -1
4 4 7 11 7 6 0 8 3 5 7 -4 3 -3 11 2 17 24 29 81 254 95 376 8 62 18 240 14
240 -2 0 -13 -15 -25 -33z"/>
</g>
</svg>
